<svg width="26" height="20" viewBox="0 0 26 20" fill="none" xmlns="http://www.w3.org/2000/svg">
<path fill-rule="evenodd" clip-rule="evenodd" d="M23.6 1H14.0896H11.2717H1.7612C0.790072 1 0 1.87804 0 2.9573V10.395C0 11.4743 0.790072 12.3523 1.7612 12.3523H11.2717H14.0896H23.6C24.5711 12.3523 25.3612 11.4743 25.3612 10.395V2.9573C25.3612 1.87804 24.5711 1 23.6 1ZM1.7612 1.78292H11.2717H14.0896H23.6C24.1826 1.78292 24.6567 2.30983 24.6567 2.9573V8.43773H14.0896H11.2717H0.704486V2.9573C0.704486 2.30983 1.1786 1.78292 1.7612 1.78292ZM22.1911 11.5694H23.6C24.1826 11.5694 24.6567 11.0425 24.6567 10.395V9.22066H14.0896H11.2717H0.704486V10.395C0.704486 11.0425 1.1786 11.5694 1.7612 11.5694H3.17016H22.1911Z" fill="#979797"/>
<path d="M24.6567 8.43773V8.68773H24.9067V8.43773H24.6567ZM0.704486 8.43773H0.454486V8.68773H0.704486V8.43773ZM24.6567 9.22066H24.9067V8.97066H24.6567V9.22066ZM0.704486 9.22066V8.97066H0.454486V9.22066H0.704486ZM14.0896 1.25H23.6V0.75H14.0896V1.25ZM11.2717 1.25H14.0896V0.75H11.2717V1.25ZM1.7612 1.25H11.2717V0.75H1.7612V1.25ZM0.25 2.9573C0.25 1.99064 0.952315 1.25 1.7612 1.25V0.75C0.627829 0.75 -0.25 1.76545 -0.25 2.9573H0.25ZM0.25 10.395V2.9573H-0.25V10.395H0.25ZM1.7612 12.1023C0.952315 12.1023 0.25 11.3617 0.25 10.395H-0.25C-0.25 11.5869 0.627829 12.6023 1.7612 12.6023V12.1023ZM11.2717 12.1023H1.7612V12.6023H11.2717V12.1023ZM14.0896 12.1023H11.2717V12.6023H14.0896V12.1023ZM23.6 12.1023H14.0896V12.6023H23.6V12.1023ZM25.1112 10.395C25.1112 11.3617 24.4089 12.1023 23.6 12.1023V12.6023C24.7334 12.6023 25.6112 11.5869 25.6112 10.395H25.1112ZM25.1112 2.9573V10.395H25.6112V2.9573H25.1112ZM23.6 1.25C24.4089 1.25 25.1112 1.99064 25.1112 2.9573H25.6112C25.6112 1.76545 24.7334 0.75 23.6 0.75V1.25ZM11.2717 1.53292H1.7612V2.03292H11.2717V1.53292ZM14.0896 1.53292H11.2717V2.03292H14.0896V1.53292ZM23.6 1.53292H14.0896V2.03292H23.6V1.53292ZM24.9067 2.9573C24.9067 2.19723 24.3449 1.53292 23.6 1.53292V2.03292C24.0204 2.03292 24.4067 2.42242 24.4067 2.9573H24.9067ZM24.9067 8.43773V2.9573H24.4067V8.43773H24.9067ZM14.0896 8.68773H24.6567V8.18773H14.0896V8.68773ZM11.2717 8.68773H14.0896V8.18773H11.2717V8.68773ZM0.704486 8.68773H11.2717V8.18773H0.704486V8.68773ZM0.454486 2.9573V8.43773H0.954486V2.9573H0.454486ZM1.7612 1.53292C1.01636 1.53292 0.454486 2.19723 0.454486 2.9573H0.954486C0.954486 2.42242 1.34084 2.03292 1.7612 2.03292V1.53292ZM23.6 11.3194H22.1911V11.8194H23.6V11.3194ZM24.4067 10.395C24.4067 10.9299 24.0204 11.3194 23.6 11.3194V11.8194C24.3449 11.8194 24.9067 11.1551 24.9067 10.395H24.4067ZM24.4067 9.22066V10.395H24.9067V9.22066H24.4067ZM14.0896 9.47066H24.6567V8.97066H14.0896V9.47066ZM11.2717 9.47066H14.0896V8.97066H11.2717V9.47066ZM0.704486 9.47066H11.2717V8.97066H0.704486V9.47066ZM0.954486 10.395V9.22066H0.454486V10.395H0.954486ZM1.7612 11.3194C1.34084 11.3194 0.954486 10.9299 0.954486 10.395H0.454486C0.454486 11.1551 1.01636 11.8194 1.7612 11.8194V11.3194ZM3.17016 11.3194H1.7612V11.8194H3.17016V11.3194ZM22.1911 11.3194H3.17016V11.8194H22.1911V11.3194Z" fill="#BABABA"/>
<rect x="2.7002" y="6.08887" width="2.81791" height="0.782917" rx="0.375149" fill="#979797"/>
<rect x="6.22241" y="6.08887" width="0.704476" height="0.782917" rx="0.352238" fill="#979797"/>
<path d="M4.93142 13.9182H4.22694C4.22694 14.2298 4.12056 14.3676 3.95959 14.5766C3.7648 14.8287 3.52246 15.1431 3.52246 15.7444C3.52246 16.346 3.7648 16.66 3.95959 16.9125C4.12056 17.1215 4.22694 17.2593 4.22694 17.5713C4.22694 17.8833 4.12056 18.0215 3.95924 18.2301C3.7648 18.4826 3.52246 18.797 3.52246 19.3987H4.22694C4.22694 19.0867 4.33331 18.9485 4.49464 18.7398C4.68908 18.4873 4.93142 18.1726 4.93142 17.5713C4.93142 16.97 4.68943 16.6557 4.49464 16.4032C4.33331 16.1946 4.22694 16.0564 4.22694 15.7444C4.22694 15.4324 4.33331 15.2946 4.49429 15.0859C4.68908 14.8334 4.93142 14.5195 4.93142 13.9182Z" fill="#979797" stroke="#BABABA" stroke-width="0.5"/>
<path d="M9.15822 13.9182H8.45375C8.45375 14.2298 8.34737 14.3676 8.1864 14.5766C7.99161 14.8287 7.74927 15.1431 7.74927 15.7444C7.74927 16.346 7.99161 16.66 8.1864 16.9125C8.34737 17.1215 8.45375 17.2593 8.45375 17.5713C8.45375 17.8833 8.34737 18.0215 8.18604 18.2301C7.99161 18.4826 7.74927 18.797 7.74927 19.3987H8.45375C8.45375 19.0867 8.56012 18.9485 8.72145 18.7398C8.91588 18.4873 9.15822 18.1726 9.15822 17.5713C9.15822 16.97 8.91624 16.6557 8.72145 16.4032C8.56012 16.1946 8.45375 16.0564 8.45375 15.7444C8.45375 15.4324 8.56012 15.2946 8.7211 15.0859C8.91588 14.8334 9.15822 14.5195 9.15822 13.9182Z" fill="#979797" stroke="#BABABA" stroke-width="0.5"/>
<path d="M13.385 13.9182H12.6806C12.6806 14.2298 12.5742 14.3676 12.4132 14.5766C12.2184 14.8287 11.9761 15.1431 11.9761 15.7444C11.9761 16.346 12.2184 16.66 12.4132 16.9125C12.5742 17.1215 12.6806 17.2593 12.6806 17.5713C12.6806 17.8833 12.5742 18.0215 12.4129 18.2301C12.2184 18.4826 11.9761 18.797 11.9761 19.3987H12.6806C12.6806 19.0867 12.7869 18.9485 12.9483 18.7398C13.1427 18.4873 13.385 18.1726 13.385 17.5713C13.385 16.97 13.143 16.6557 12.9483 16.4032C12.7869 16.1946 12.6806 16.0564 12.6806 15.7444C12.6806 15.4324 12.7869 15.2946 12.9479 15.0859C13.1427 14.8334 13.385 14.5195 13.385 13.9182Z" fill="#979797" stroke="#BABABA" stroke-width="0.5"/>
<path d="M17.6118 13.9182H16.9074C16.9074 14.2298 16.801 14.3676 16.64 14.5766C16.4452 14.8287 16.2029 15.1431 16.2029 15.7444C16.2029 16.346 16.4452 16.66 16.64 16.9125C16.801 17.1215 16.9074 17.2593 16.9074 17.5713C16.9074 17.8833 16.801 18.0215 16.6397 18.2301C16.4452 18.4826 16.2029 18.797 16.2029 19.3987H16.9074C16.9074 19.0867 17.0137 18.9485 17.1751 18.7398C17.3695 18.4873 17.6118 18.1726 17.6118 17.5713C17.6118 16.97 17.3698 16.6557 17.1751 16.4032C17.0137 16.1946 16.9074 16.0564 16.9074 15.7444C16.9074 15.4324 17.0137 15.2946 17.1747 15.0859C17.3695 14.8334 17.6118 14.5195 17.6118 13.9182Z" fill="#979797" stroke="#BABABA" stroke-width="0.5"/>
<path d="M21.8389 13.9182H21.1344C21.1344 14.2298 21.028 14.3676 20.8671 14.5766C20.6723 14.8287 20.4299 15.1431 20.4299 15.7444C20.4299 16.346 20.6723 16.66 20.8671 16.9125C21.028 17.1215 21.1344 17.2593 21.1344 17.5713C21.1344 17.8833 21.028 18.0215 20.8667 18.2301C20.6723 18.4826 20.4299 18.797 20.4299 19.3987H21.1344C21.1344 19.0867 21.2408 18.9485 21.4021 18.7398C21.5965 18.4873 21.8389 18.1726 21.8389 17.5713C21.8389 16.97 21.5969 16.6557 21.4021 16.4032C21.2408 16.1946 21.1344 16.0564 21.1344 15.7444C21.1344 15.4324 21.2408 15.2946 21.4018 15.0859C21.5965 14.8334 21.8389 14.5195 21.8389 13.9182Z" fill="#979797" stroke="#BABABA" stroke-width="0.5"/>
</svg>
