<svg width="14" height="32" viewBox="0 0 14 32" fill="none" xmlns="http://www.w3.org/2000/svg">
<path fill-rule="evenodd" clip-rule="evenodd" d="M12.8573 8.85473C13.031 8.80438 13.2048 8.85473 13.3351 9.00579C13.4654 9.15684 13.5088 9.35824 13.422 9.61L6.03771 30.9588C5.99427 31.1602 5.82053 31.2609 5.64678 31.2609H5.51647C5.29928 31.2105 5.16897 30.9588 5.21241 30.707L7.47112 16.0046L0.521241 17.4647C0.390931 17.4647 0.217184 17.4144 0.13031 17.3137C0.0434368 17.1626 0 17.0116 0 16.8605L1.73747 1.45316C1.78091 1.2014 1.95465 1 2.17184 1H8.8611C8.99141 1 9.12172 1.05035 9.20859 1.2014C9.29547 1.35246 9.29547 1.50351 9.25203 1.65456L6.08115 11.624L12.8573 8.85473ZM8.42671 15.4003L6.81955 25.974L12.2491 10.1639L5.51644 12.8828C5.38613 12.9835 5.21239 12.9332 5.08208 12.7821C4.9952 12.6814 4.95177 12.48 4.9952 12.2786L8.25296 2.00702H2.56274L0.912148 16.2563L7.90547 14.7961H7.99234C8.12265 14.7961 8.20952 14.8465 8.2964 14.9472C8.42671 15.0479 8.47014 15.2493 8.42671 15.4003Z" fill="white"/>
<path d="M13.3351 9.00579L13.2594 9.07111V9.07111L13.3351 9.00579ZM12.8573 8.85473L12.8293 8.75815L12.8194 8.76217L12.8573 8.85473ZM13.422 9.61L13.5165 9.64269L13.5165 9.64262L13.422 9.61ZM6.03771 30.9588L5.94251 30.9258L5.93996 30.9377L6.03771 30.9588ZM5.51647 31.2609L5.49388 31.3583L5.50503 31.3609H5.51647V31.2609ZM5.21241 30.707L5.31097 30.724L5.31125 30.7222L5.21241 30.707ZM7.47112 16.0046L7.56996 16.0197L7.59189 15.877L7.45056 15.9067L7.47112 16.0046ZM0.521241 17.4647V17.5647H0.531633L0.541802 17.5626L0.521241 17.4647ZM0.13031 17.3137L0.0436242 17.3635L0.048372 17.3718L0.0545926 17.379L0.13031 17.3137ZM0 16.8605L-0.1 16.8492V16.8605H0ZM1.73747 1.45316L1.63876 1.43613L1.6381 1.44195L1.73747 1.45316ZM9.20859 1.2014L9.12191 1.25126V1.25126L9.20859 1.2014ZM9.25203 1.65456L9.34736 1.68488L9.34813 1.6822L9.25203 1.65456ZM6.08115 11.624L5.98585 11.5937L5.92104 11.7975L6.11898 11.7166L6.08115 11.624ZM6.81955 25.974L6.72068 25.959L6.91412 26.0065L6.81955 25.974ZM8.42671 15.4003L8.32979 15.3725L8.32784 15.3853L8.42671 15.4003ZM12.2491 10.1639L12.3437 10.1963L12.4149 9.98907L12.2117 10.0711L12.2491 10.1639ZM5.51644 12.8828L5.479 12.7901L5.46621 12.7952L5.4553 12.8037L5.51644 12.8828ZM5.08208 12.7821L5.00636 12.8474L5.00636 12.8474L5.08208 12.7821ZM4.9952 12.2786L4.89945 12.2482L4.89745 12.2575L4.9952 12.2786ZM8.25296 2.00702L8.34828 2.03725L8.38958 1.90702H8.25296V2.00702ZM2.56274 2.00702V1.90702H2.47366L2.46341 1.99552L2.56274 2.00702ZM0.912148 16.2563L0.812813 16.2448L0.796858 16.3825L0.932587 16.3542L0.912148 16.2563ZM7.90547 14.7961V14.6961H7.89514L7.88503 14.6982L7.90547 14.7961ZM8.2964 14.9472L8.22068 15.0125L8.22727 15.0201L8.23525 15.0263L8.2964 14.9472ZM13.4108 8.94047C13.2561 8.76118 13.0425 8.69696 12.8294 8.75869L12.8851 8.95078C13.0196 8.91181 13.1534 8.94829 13.2594 9.07111L13.4108 8.94047ZM13.5165 9.64262C13.6135 9.36158 13.5673 9.12182 13.4108 8.94047L13.2594 9.07111C13.3635 9.19186 13.4042 9.35491 13.3274 9.57738L13.5165 9.64262ZM6.13222 30.9915L13.5165 9.64269L13.3275 9.57731L5.9432 30.9261L6.13222 30.9915ZM5.64678 31.3609C5.85705 31.3609 6.08002 31.2369 6.13546 30.9798L5.93996 30.9377C5.90852 31.0834 5.784 31.1609 5.64678 31.1609V31.3609ZM5.51647 31.3609H5.64678V31.1609H5.51647V31.3609ZM5.11387 30.69C5.06441 30.9767 5.20951 31.2924 5.49388 31.3583L5.53905 31.1635C5.38906 31.1287 5.27354 30.9408 5.31095 30.724L5.11387 30.69ZM7.37228 15.9894L5.11357 30.6918L5.31125 30.7222L7.56996 16.0197L7.37228 15.9894ZM0.541802 17.5626L7.49168 16.1024L7.45056 15.9067L0.50068 17.3669L0.541802 17.5626ZM0.0545926 17.379C0.113197 17.4469 0.195664 17.4925 0.275893 17.5212C0.357015 17.5501 0.44438 17.5647 0.521241 17.5647V17.3647C0.467792 17.3647 0.403128 17.3542 0.343081 17.3328C0.282141 17.311 0.234297 17.2811 0.206028 17.2484L0.0545926 17.379ZM-0.1 16.8605C-0.1 17.0316 -0.0506157 17.1997 0.0436242 17.3635L0.216996 17.2638C0.137489 17.1256 0.1 16.9915 0.1 16.8605H-0.1ZM1.6381 1.44195L-0.0993702 16.8493L0.0993702 16.8717L1.83684 1.46436L1.6381 1.44195ZM2.17184 0.9C1.88628 0.9 1.68676 1.1589 1.63893 1.43616L1.83601 1.47016C1.87505 1.24391 2.02303 1.1 2.17184 1.1V0.9ZM8.8611 0.9H2.17184V1.1H8.8611V0.9ZM9.29528 1.15155C9.18764 0.964381 9.0209 0.9 8.8611 0.9V1.1C8.96191 1.1 9.0558 1.13632 9.12191 1.25126L9.29528 1.15155ZM9.34813 1.6822C9.39698 1.51235 9.399 1.3319 9.29528 1.15155L9.12191 1.25126C9.19193 1.37301 9.19395 1.49467 9.15592 1.62692L9.34813 1.6822ZM6.17644 11.6543L9.34732 1.68487L9.15673 1.62425L5.98585 11.5937L6.17644 11.6543ZM12.8194 8.76217L6.04331 11.5315L6.11898 11.7166L12.8951 8.9473L12.8194 8.76217ZM6.91841 25.9891L8.52557 15.4154L8.32784 15.3853L6.72068 25.959L6.91841 25.9891ZM12.1546 10.1314L6.72497 25.9415L6.91412 26.0065L12.3437 10.1963L12.1546 10.1314ZM5.55389 12.9755L12.2866 10.2566L12.2117 10.0711L5.479 12.7901L5.55389 12.9755ZM5.00636 12.8474C5.08155 12.9346 5.17447 12.9989 5.27515 13.0239C5.37844 13.0496 5.48636 13.0324 5.57759 12.9619L5.4553 12.8037C5.41621 12.8339 5.37211 12.8419 5.32337 12.8298C5.27203 12.8171 5.21291 12.7807 5.15779 12.7168L5.00636 12.8474ZM4.89745 12.2575C4.84964 12.4792 4.89293 12.7159 5.00636 12.8474L5.15779 12.7168C5.09748 12.6469 5.05389 12.4808 5.09296 12.2997L4.89745 12.2575ZM8.15764 1.97679L4.89988 12.2484L5.09052 12.3088L8.34828 2.03725L8.15764 1.97679ZM2.56274 2.10702H8.25296V1.90702H2.56274V2.10702ZM1.01148 16.2678L2.66208 2.01853L2.46341 1.99552L0.812813 16.2448L1.01148 16.2678ZM7.88503 14.6982L0.89171 16.1584L0.932587 16.3542L7.9259 14.894L7.88503 14.6982ZM7.99234 14.6961H7.90547V14.8961H7.99234V14.6961ZM8.37211 14.8819C8.32349 14.8255 8.27037 14.7779 8.20645 14.745C8.1416 14.7116 8.07124 14.6961 7.99234 14.6961V14.8961C8.04375 14.8961 8.08198 14.9059 8.11486 14.9228C8.14868 14.9402 8.18243 14.9682 8.22068 15.0125L8.37211 14.8819ZM8.52281 15.428C8.57493 15.2467 8.52724 14.9992 8.35754 14.8681L8.23525 15.0263C8.32617 15.0966 8.36535 15.2519 8.3306 15.3727L8.52281 15.428Z" fill="white"/>
</svg>
