<svg width="35" height="35" viewBox="0 0 35 35" fill="none" xmlns="http://www.w3.org/2000/svg">
<path fill-rule="evenodd" clip-rule="evenodd" d="M34.6566 13.2514L24.2602 2.80399C20.5212 -0.934662 14.4788 -0.934662 10.7398 2.80399L0.34342 13.2514C0.00852206 13.5855 -0.092084 14.0899 0.088829 14.5278C0.269742 14.9658 0.696249 15.2504 1.16814 15.2479V15.2479C2.1412 15.2479 2.93003 16.0367 2.93003 17.0098V26.6371C2.93691 31.2529 6.65882 34.9931 11.2522 35H13.039C13.6829 34.9931 14.2012 34.4667 14.2011 33.8196V27.525C14.2011 25.7031 15.6781 24.2261 17.5 24.2261V24.2261C19.3219 24.2261 20.7989 25.7031 20.7989 27.525V33.8196C20.7988 34.4667 21.3171 34.9931 21.961 35H23.7478C28.3412 34.9931 32.0631 31.2529 32.07 26.6371V17.0098C32.07 16.0367 32.8588 15.2479 33.8319 15.2479V15.2479C34.3037 15.2504 34.7303 14.9658 34.9112 14.5278C35.0921 14.0899 34.9915 13.5855 34.6566 13.2514ZM12.3893 4.4615C13.744 3.09813 15.5827 2.33204 17.5 2.33204C19.4173 2.33204 21.256 3.09813 22.6107 4.4615V4.4615C25.7161 7.58207 23.5058 12.8998 19.1034 12.8998H15.8966C11.4942 12.8998 9.28392 7.58207 12.3893 4.4615V4.4615ZM23.7478 32.6518C27.0507 32.6449 29.7264 29.9561 29.7333 26.6371V26.6371C29.7333 20.347 24.6342 15.2479 18.3441 15.2479H16.6559C10.3658 15.2479 5.26672 20.347 5.26672 26.6371V26.6371C5.27359 29.9561 7.94934 32.6449 11.2522 32.6518V32.6518C11.5903 32.6518 11.8644 32.3777 11.8644 32.0396V23.0458C11.8713 22.3988 12.3952 21.878 13.039 21.878H21.961C22.6048 21.878 23.1287 22.3988 23.1356 23.0458V32.0396C23.1356 32.3777 23.4097 32.6518 23.7478 32.6518V32.6518Z" fill="white"/>
</svg>
