<svg width="22" height="26" viewBox="0 0 22 26" fill="none" xmlns="http://www.w3.org/2000/svg">
<path fill-rule="evenodd" clip-rule="evenodd" d="M0.292604 12.6956C0.64869 13.311 1.27692 13.6854 1.95323 13.6853H9.85554V23.4074H5.79532C5.34787 23.4074 4.98514 23.7701 4.98514 24.2176C4.98514 24.665 5.34787 25.0277 5.79532 25.0277H15.4296C15.8771 25.0277 16.2398 24.665 16.2398 24.2176C16.2398 23.7701 15.8771 23.4074 15.4296 23.4074H11.3694V13.6853H19.2717C19.9434 13.6729 20.5621 13.2918 20.9095 12.6764C21.257 12.0609 21.2845 11.2975 20.9823 10.6552L17.1977 2.48055C16.6967 1.40129 15.6669 0.719846 14.5409 0.722465H6.68402C5.54276 0.70579 4.49426 1.39302 3.98936 2.48865L0.204733 10.6633C-0.0967238 11.3113 -0.0634811 12.0801 0.292604 12.6956ZM5.37453 3.2097C5.6204 2.67666 6.12862 2.34022 6.68401 2.34282H14.5409C15.1072 2.32763 15.6301 2.66597 15.8807 3.2097L19.6653 11.3844C19.7336 11.5302 19.7264 11.7036 19.6461 11.8424C19.5659 11.9811 19.4241 12.0654 19.2717 12.0649H1.92295C1.77049 12.0654 1.62875 11.9811 1.5485 11.8424C1.46826 11.7036 1.461 11.5302 1.52935 11.3844L5.37453 3.2097Z" fill="white"/>
<path d="M1.95323 13.6853L1.95323 13.5853L1.95321 13.5853L1.95323 13.6853ZM0.292604 12.6956L0.206049 12.7456L0.206049 12.7456L0.292604 12.6956ZM9.85554 13.6853H9.95554V13.5853H9.85554V13.6853ZM9.85554 23.4074V23.5074H9.95554V23.4074H9.85554ZM11.3694 23.4074H11.2694V23.5074H11.3694V23.4074ZM11.3694 13.6853V13.5853H11.2694V13.6853H11.3694ZM19.2717 13.6853V13.7853L19.2735 13.7853L19.2717 13.6853ZM20.9823 10.6552L20.8916 10.6972L20.8919 10.6978L20.9823 10.6552ZM17.1977 2.48055L17.2885 2.43853L17.2884 2.43844L17.1977 2.48055ZM14.5409 0.722465V0.822465L14.5411 0.822464L14.5409 0.722465ZM6.68402 0.722465L6.68256 0.822465H6.68402V0.722465ZM3.98936 2.48865L4.08011 2.53066L4.08018 2.5305L3.98936 2.48865ZM0.204733 10.6633L0.295402 10.7055L0.295479 10.7053L0.204733 10.6633ZM6.68401 2.34282L6.68354 2.44282H6.68401V2.34282ZM5.37453 3.2097L5.46502 3.25227L5.46534 3.25159L5.37453 3.2097ZM14.5409 2.34282V2.44285L14.5436 2.44278L14.5409 2.34282ZM15.8807 3.2097L15.7898 3.25156L15.7899 3.25172L15.8807 3.2097ZM19.6653 11.3844L19.5745 11.4264L19.5747 11.4268L19.6653 11.3844ZM19.6461 11.8424L19.5596 11.7923L19.5596 11.7923L19.6461 11.8424ZM19.2717 12.0649L19.272 11.9649H19.2717V12.0649ZM1.92295 12.0649L1.92295 11.9649L1.92266 11.9649L1.92295 12.0649ZM1.5485 11.8424L1.63507 11.7923L1.63507 11.7923L1.5485 11.8424ZM1.52935 11.3844L1.43886 11.3418L1.43879 11.3419L1.52935 11.3844ZM1.95321 13.5853C1.31479 13.5854 0.718493 13.232 0.37916 12.6455L0.206049 12.7456C0.578887 13.39 1.23905 13.7854 1.95325 13.7853L1.95321 13.5853ZM9.85554 13.5853H1.95323V13.7853H9.85554V13.5853ZM9.95554 23.4074V13.6853H9.75554V23.4074H9.95554ZM5.79532 23.5074H9.85554V23.3074H5.79532V23.5074ZM5.08514 24.2176C5.08514 23.8253 5.4031 23.5074 5.79532 23.5074V23.3074C5.29264 23.3074 4.88514 23.7149 4.88514 24.2176H5.08514ZM5.79532 24.9277C5.4031 24.9277 5.08514 24.6098 5.08514 24.2176H4.88514C4.88514 24.7202 5.29264 25.1277 5.79532 25.1277V24.9277ZM15.4296 24.9277H5.79532V25.1277H15.4296V24.9277ZM16.1398 24.2176C16.1398 24.6098 15.8218 24.9277 15.4296 24.9277V25.1277C15.9323 25.1277 16.3398 24.7202 16.3398 24.2176H16.1398ZM15.4296 23.5074C15.8218 23.5074 16.1398 23.8253 16.1398 24.2176H16.3398C16.3398 23.7149 15.9323 23.3074 15.4296 23.3074V23.5074ZM11.3694 23.5074H15.4296V23.3074H11.3694V23.5074ZM11.2694 13.6853V23.4074H11.4694V13.6853H11.2694ZM19.2717 13.5853H11.3694V13.7853H19.2717V13.5853ZM20.8225 12.6272C20.4913 13.2138 19.904 13.5736 19.2699 13.5853L19.2735 13.7853C19.9829 13.7722 20.6329 13.3699 20.9966 12.7255L20.8225 12.6272ZM20.8919 10.6978C21.1803 11.3109 21.1539 12.0401 20.8225 12.6272L20.9966 12.7255C21.3601 12.0817 21.3887 11.2841 21.0728 10.6126L20.8919 10.6978ZM17.107 2.52256L20.8916 10.6972L21.0731 10.6132L17.2885 2.43853L17.107 2.52256ZM14.5411 0.822464C15.6253 0.819943 16.6212 1.47621 17.107 2.52266L17.2884 2.43844C16.7721 1.32638 15.7084 0.619749 14.5407 0.622465L14.5411 0.822464ZM6.68402 0.822465H14.5409V0.622465H6.68402V0.822465ZM4.08018 2.5305C4.56974 1.46816 5.58368 0.806398 6.68256 0.822454L6.68548 0.622475C5.50185 0.605181 4.41878 1.31788 3.89854 2.44679L4.08018 2.5305ZM0.295479 10.7053L4.08011 2.53066L3.89861 2.44663L0.113986 10.6213L0.295479 10.7053ZM0.37916 12.6455C0.0395156 12.0585 0.00762232 11.3241 0.295401 10.7055L0.114064 10.6211C-0.20107 11.2985 -0.166478 12.1018 0.206049 12.7456L0.37916 12.6455ZM6.68448 2.24282C6.08712 2.24002 5.54481 2.60179 5.28372 3.16782L5.46534 3.25159C5.696 2.75153 6.17011 2.44041 6.68354 2.44282L6.68448 2.24282ZM14.5409 2.24282H6.68401V2.44282H14.5409V2.24282ZM15.9715 3.16785C15.7054 2.59047 15.1473 2.22651 14.5382 2.24285L14.5436 2.44278C15.067 2.42874 15.5548 2.74147 15.7898 3.25156L15.9715 3.16785ZM19.756 11.3424L15.9714 3.16769L15.7899 3.25172L19.5745 11.4264L19.756 11.3424ZM19.7327 11.8924C19.8294 11.7252 19.838 11.5173 19.7558 11.3419L19.5747 11.4268C19.6293 11.5432 19.6233 11.682 19.5596 11.7923L19.7327 11.8924ZM19.2714 12.1649C19.4619 12.1655 19.6357 12.0602 19.7327 11.8924L19.5596 11.7923C19.4961 11.902 19.3864 11.9652 19.272 11.9649L19.2714 12.1649ZM1.92295 12.1649H19.2717V11.9649H1.92295V12.1649ZM1.46194 11.8924C1.55897 12.0602 1.73278 12.1655 1.92323 12.1649L1.92266 11.9649C1.80821 11.9652 1.69852 11.902 1.63507 11.7923L1.46194 11.8924ZM1.43879 11.3419C1.35665 11.5173 1.36521 11.7252 1.46194 11.8924L1.63507 11.7923C1.5713 11.682 1.56536 11.5432 1.6199 11.4268L1.43879 11.3419ZM5.28404 3.16714L1.43886 11.3418L1.61984 11.4269L5.46502 3.25227L5.28404 3.16714Z" fill="white"/>
</svg>
