<svg width="21" height="28" viewBox="0 0 21 28" fill="none" xmlns="http://www.w3.org/2000/svg">
<path fill-rule="evenodd" clip-rule="evenodd" d="M10.9836 3.00949C10.9836 3.36166 10.7302 3.6498 10.4204 3.6498C10.1106 3.6498 9.85712 3.36166 9.85712 2.97747V0.640316C9.85712 0.288142 10.1106 0 10.4204 0C10.7302 0 10.9836 0.288142 10.9836 0.640316V3.00949ZM6.56202 18.9213C6.67467 19.1134 6.84365 19.2095 7.0408 19.2095H13.8C13.9971 19.2095 14.1661 19.1134 14.2787 18.9213C15.4897 16.8723 16.3065 13.9589 16.3065 11.7178C16.3065 7.68379 13.6591 4.38616 10.4204 4.38616C7.18161 4.38616 4.53428 7.68379 4.53428 11.7178C4.53428 13.9589 5.35101 16.8723 6.56202 18.9213ZM10.4204 5.66679C13.0395 5.66679 15.1799 8.38814 15.1799 11.7178C15.1799 13.6387 14.504 16.0719 13.4902 17.9288H7.35059C6.33672 16.0719 5.6608 13.6387 5.6608 11.7178C5.6608 8.38814 7.77304 5.66679 10.4204 5.66679ZM14.1097 21.5787V21.4826C14.1097 20.5221 13.4057 19.7217 12.5608 19.7217H8.25181C7.40692 19.7217 6.70284 20.5221 6.70284 21.4826V21.5787C6.70284 22.5391 7.40692 23.3395 8.25181 23.3395H12.5608C13.4338 23.3395 14.1097 22.5391 14.1097 21.5787ZM12.9832 21.5787C12.9832 21.8348 12.7861 22.0589 12.5608 22.0589H8.25181C8.0265 22.0589 7.82936 21.8348 7.82936 21.5787V21.4826C7.82936 21.2265 8.0265 21.0024 8.25181 21.0024H12.5608C12.7861 21.0024 12.9832 21.2265 12.9832 21.4826V21.5787ZM9.46282 24.0119H11.3498C12.1946 24.0119 12.8987 24.8123 12.8987 25.7727V25.8688C12.8987 26.8293 12.1946 27.6297 11.3498 27.6297H9.46282C8.61793 27.6297 7.91385 26.8293 7.91385 25.8688V25.7727C7.91385 24.8123 8.61793 24.0119 9.46282 24.0119ZM11.3498 26.381C11.5751 26.381 11.7722 26.1569 11.7722 25.9008V25.8048C11.7722 25.5486 11.5751 25.3245 11.3498 25.3245H9.46282C9.23752 25.3245 9.04037 25.5486 9.04037 25.8048V25.9008C9.04037 26.1569 9.23752 26.381 9.46282 26.381H11.3498ZM15.884 6.24308C16.0248 6.24308 16.1657 6.17905 16.2783 6.05099L17.7428 4.38617C17.9681 4.13004 17.9681 3.74585 17.7428 3.48973C17.5175 3.2336 17.1795 3.2336 16.9542 3.48973L15.4897 5.15455C15.2644 5.41067 15.2644 5.79486 15.4897 6.05099C15.5742 6.17905 15.7432 6.24308 15.884 6.24308ZM18.1089 12.4862C17.7991 12.4862 17.5457 12.198 17.5457 11.8458C17.5457 11.4937 17.7991 11.2055 18.1089 11.2055H20.1648C20.4746 11.2055 20.7281 11.4937 20.7281 11.8458C20.7281 12.198 20.4746 12.4862 20.1648 12.4862H18.1089ZM17.264 20.3621C17.4048 20.3621 17.5456 20.298 17.6583 20.17C17.8836 19.9138 17.8836 19.5296 17.6583 19.2735L16.1938 17.6087C15.9685 17.3526 15.6306 17.3526 15.4052 17.6087C15.1799 17.8648 15.1799 18.249 15.4052 18.5051L16.8697 20.17C16.9824 20.298 17.1232 20.3621 17.264 20.3621ZM5.26651 18.4411L3.80203 20.1059C3.68937 20.234 3.54856 20.298 3.40774 20.298C3.26693 20.298 3.12611 20.234 3.01346 20.1059C2.78815 19.8498 2.78815 19.4656 3.01346 19.2095L4.47794 17.5447C4.70325 17.2885 5.0412 17.2885 5.26651 17.5447C5.49182 17.8008 5.49182 18.185 5.26651 18.4411ZM0.563263 12.3901H2.61917C2.92897 12.3901 3.18244 12.102 3.18244 11.7498C3.18244 11.3976 2.92897 11.1095 2.61917 11.1095H0.563263C0.253468 11.1095 0 11.3976 0 11.7498C0 12.102 0.253468 12.3901 0.563263 12.3901ZM4.92856 6.17905C4.78774 6.17905 4.64693 6.11502 4.53427 5.98696L3.06979 4.32214C2.84448 4.06601 2.84448 3.68182 3.06979 3.4257C3.2951 3.16957 3.63305 3.16957 3.85836 3.4257L5.32284 5.09051C5.54815 5.34664 5.54815 5.73083 5.32284 5.98696C5.21019 6.11502 5.06938 6.17905 4.92856 6.17905Z" fill="#979797"/>
</svg>
