<svg width="25" height="39" viewBox="0 0 25 39" fill="none" xmlns="http://www.w3.org/2000/svg">
<g filter="url(#filter0_d)">
<path fill-rule="evenodd" clip-rule="evenodd" d="M5.45804 11.784H20.2715C20.4539 11.784 20.5972 11.6175 20.5972 11.4055V2.26705C20.5972 1.26008 19.8872 0.434814 19.0208 0.434814H6.70878C5.84238 0.434814 5.13232 1.26008 5.13232 2.26705V11.4055C5.13232 11.6175 5.27564 11.784 5.45804 11.784ZM19.9458 11.0269H5.78375V2.26705C5.78375 1.67649 6.20067 1.19194 6.70878 1.19194H19.0208C19.5289 1.19194 19.9458 1.67649 19.9458 2.26705V11.0269Z" fill="#BABABA"/>
<path d="M5.78375 11.0269H5.43638V11.3743H5.78375V11.0269ZM19.9458 11.0269V11.3743H20.2932V11.0269H19.9458ZM20.2715 11.4367H5.45804V12.1314H20.2715V11.4367ZM20.2498 11.4055C20.2498 11.4339 20.2403 11.4467 20.2394 11.4477C20.2391 11.4481 20.2415 11.4452 20.2479 11.4421C20.2548 11.4387 20.2633 11.4367 20.2715 11.4367V12.1314C20.6929 12.1314 20.9446 11.7585 20.9446 11.4055H20.2498ZM20.2498 2.26705V11.4055H20.9446V2.26705H20.2498ZM19.0208 0.782183C19.6481 0.782183 20.2498 1.40107 20.2498 2.26705H20.9446C20.9446 1.11908 20.1262 0.087446 19.0208 0.087446V0.782183ZM6.70878 0.782183H19.0208V0.087446H6.70878V0.782183ZM5.47969 2.26705C5.47969 1.40107 6.0814 0.782183 6.70878 0.782183V0.087446C5.60336 0.087446 4.78496 1.11908 4.78496 2.26705H5.47969ZM5.47969 11.4055V2.26705H4.78496V11.4055H5.47969ZM5.45804 11.4367C5.46625 11.4367 5.47473 11.4387 5.4816 11.4421C5.488 11.4452 5.4904 11.4481 5.4901 11.4477C5.4892 11.4467 5.47969 11.4339 5.47969 11.4055H4.78496C4.78496 11.7585 5.03662 12.1314 5.45804 12.1314V11.4367ZM5.78375 11.3743H19.9458V10.6796H5.78375V11.3743ZM5.43638 2.26705V11.0269H6.13112V2.26705H5.43638ZM6.70878 0.844568C5.96164 0.844568 5.43638 1.5355 5.43638 2.26705H6.13112C6.13112 1.81749 6.43969 1.5393 6.70878 1.5393V0.844568ZM19.0208 0.844568H6.70878V1.5393H19.0208V0.844568ZM20.2932 2.26705C20.2932 1.5355 19.7679 0.844568 19.0208 0.844568V1.5393C19.2899 1.5393 19.5984 1.81749 19.5984 2.26705H20.2932ZM20.2932 11.0269V2.26705H19.5984V11.0269H20.2932Z" fill="#979797"/>
<path fill-rule="evenodd" clip-rule="evenodd" d="M5.45804 11.309H20.2715C20.4539 11.309 20.5972 11.4756 20.5972 11.6876V27.8672C20.5972 28.8742 19.8872 29.6995 19.0208 29.6995H6.70878C5.84238 29.6995 5.13232 28.8742 5.13232 27.8672V11.6876C5.13232 11.4756 5.27564 11.309 5.45804 11.309ZM19.9458 12.0661H5.78375V27.8672C5.78375 28.4578 6.20067 28.9423 6.70878 28.9423H19.0208C19.5289 28.9423 19.9458 28.4578 19.9458 27.8672V12.0661Z" fill="#979797"/>
<path d="M5.78375 12.0661H5.43638V11.7188H5.78375V12.0661ZM19.9458 12.0661V11.7188H20.2932V12.0661H19.9458ZM20.2715 11.6564H5.45804V10.9616H20.2715V11.6564ZM20.2498 11.6876C20.2498 11.6592 20.2403 11.6464 20.2394 11.6453C20.2391 11.645 20.2415 11.6479 20.2479 11.651C20.2548 11.6543 20.2633 11.6564 20.2715 11.6564V10.9616C20.6929 10.9616 20.9446 11.3346 20.9446 11.6876H20.2498ZM20.2498 27.8672V11.6876H20.9446V27.8672H20.2498ZM19.0208 29.3521C19.6481 29.3521 20.2498 28.7332 20.2498 27.8672H20.9446C20.9446 29.0152 20.1262 30.0468 19.0208 30.0468V29.3521ZM6.70878 29.3521H19.0208V30.0468H6.70878V29.3521ZM5.47969 27.8672C5.47969 28.7332 6.0814 29.3521 6.70878 29.3521V30.0468C5.60336 30.0468 4.78496 29.0152 4.78496 27.8672H5.47969ZM5.47969 11.6876V27.8672H4.78496V11.6876H5.47969ZM5.45804 11.6564C5.46625 11.6564 5.47473 11.6543 5.4816 11.651C5.488 11.6479 5.4904 11.645 5.4901 11.6453C5.4892 11.6464 5.47969 11.6592 5.47969 11.6876H4.78496C4.78496 11.3346 5.03662 10.9616 5.45804 10.9616V11.6564ZM5.78375 11.7188H19.9458V12.4135H5.78375V11.7188ZM5.43638 27.8672V12.0661H6.13112V27.8672H5.43638ZM6.70878 29.2897C5.96164 29.2897 5.43638 28.5988 5.43638 27.8672H6.13112C6.13112 28.3168 6.43969 28.595 6.70878 28.595V29.2897ZM19.0208 29.2897H6.70878V28.595H19.0208V29.2897ZM20.2932 27.8672C20.2932 28.5988 19.7679 29.2897 19.0208 29.2897V28.595C19.2899 28.595 19.5984 28.3168 19.5984 27.8672H20.2932ZM20.2932 12.0661V27.8672H19.5984V12.0661H20.2932Z" fill="#979797"/>
<path d="M8.42857 8.58143H8.24617C7.79668 8.58143 7.43188 8.15744 7.43188 7.63503V5.40978C7.43188 4.88737 7.79668 4.46338 8.24617 4.46338H8.42857C8.87805 4.46338 9.24285 4.88737 9.24285 5.40978V7.63503C9.24285 8.15744 8.87805 8.58143 8.42857 8.58143Z" fill="#BABABA"/>
<path d="M8.42857 19.6513H8.24617C7.79668 19.6513 7.43188 19.2273 7.43188 18.7049V15.0336C7.43188 14.5111 7.79668 14.0872 8.24617 14.0872H8.42857C8.87805 14.0872 9.24285 14.5111 9.24285 15.0336V18.7049C9.24285 19.2273 8.87805 19.6513 8.42857 19.6513Z" fill="#BABABA"/>
</g>
<defs>
<filter id="filter0_d" x="0.784912" y="0.0874023" width="24.1596" height="37.9595" filterUnits="userSpaceOnUse" color-interpolation-filters="sRGB">
<feFlood flood-opacity="0" result="BackgroundImageFix"/>
<feColorMatrix in="SourceAlpha" type="matrix" values="0 0 0 0 0 0 0 0 0 0 0 0 0 0 0 0 0 0 127 0"/>
<feOffset dy="4"/>
<feGaussianBlur stdDeviation="2"/>
<feColorMatrix type="matrix" values="0 0 0 0 0 0 0 0 0 0 0 0 0 0 0 0 0 0 0.25 0"/>
<feBlend mode="normal" in2="BackgroundImageFix" result="effect1_dropShadow"/>
<feBlend mode="normal" in="SourceGraphic" in2="effect1_dropShadow" result="shape"/>
</filter>
</defs>
</svg>
